# Blender v2.80 (sub 75) OBJ File: 'povorots.blend'
# www.blender.org
mtllib ended_topping.mtl
o 99_Topping.003_Cube.050
v 0.294373 0.383610 0.901300
v 0.294373 0.383610 0.852503
v 0.343935 0.383610 0.901300
v 0.343935 0.383610 0.852503
v 0.199828 0.309324 0.994386
v 0.199828 0.309324 0.759418
v 0.438481 0.309324 0.759418
v 0.438481 0.309324 0.994386
v 0.228986 0.296312 0.965678
v 0.228986 0.296312 0.788125
v 0.409323 0.296312 0.788125
v 0.409323 0.296312 0.965678
v 0.244824 0.309324 0.950085
v 0.244824 0.309324 0.803719
v 0.393484 0.309324 0.803719
v 0.393484 0.309324 0.950085
v 0.374001 0.251884 0.932009
v 0.264308 0.251884 0.932009
v 0.264308 0.251884 0.821795
v 0.374001 0.251884 0.821795
v 0.159055 0.309324 0.876902
v 0.479254 0.309324 0.876902
v 0.198176 0.296312 0.876902
v 0.440133 0.296312 0.876902
v 0.219426 0.309324 0.876902
v 0.418883 0.309324 0.876902
v 0.285906 0.383610 0.876902
v 0.352403 0.383610 0.876902
v 0.392742 0.251884 0.876902
v 0.245567 0.251884 0.876902
v 0.319154 0.309324 0.703330
v 0.319154 0.309324 1.050473
v 0.319154 0.296312 0.745743
v 0.319154 0.296312 1.008060
v 0.319154 0.309324 0.768782
v 0.319154 0.309324 0.985022
v 0.319154 0.383610 0.840856
v 0.319154 0.383610 0.912948
v 0.319154 0.251884 0.958317
v 0.319154 0.251884 0.795487
v 0.319154 0.383610 0.876902
vt 0.500000 0.125000
vt 0.625000 0.125000
vt 0.625000 0.250000
vt 0.500000 0.250000
vt 0.500000 0.375000
vt 0.625000 0.375000
vt 0.625000 0.500000
vt 0.500000 0.500000
vt 0.500000 0.625000
vt 0.625000 0.625000
vt 0.625000 0.750000
vt 0.500000 0.750000
vt 0.500000 0.875000
vt 0.625000 0.875000
vt 0.625000 1.000000
vt 0.500000 1.000000
vt 0.750000 0.625000
vt 0.775959 0.625000
vt 0.775959 0.650959
vt 0.750000 0.650959
vt 0.844456 0.625000
vt 0.844456 0.530544
vt 0.875000 0.500000
vt 0.875000 0.625000
vt 0.750000 0.530544
vt 0.655545 0.530544
vt 0.750000 0.500000
vt 0.655545 0.625000
vt 0.655544 0.719456
vt 0.750000 0.719456
vt 0.844456 0.719455
vt 0.875000 0.750000
vt 0.750000 0.750000
vt 0.827864 0.625000
vt 0.827864 0.547136
vt 0.750000 0.547136
vt 0.672136 0.547136
vt 0.672136 0.625000
vt 0.672136 0.702864
vt 0.750000 0.702864
vt 0.827864 0.702864
vt 0.775959 0.599041
vt 0.750000 0.599041
vt 0.724041 0.599041
vt 0.724041 0.625000
vt 0.724041 0.650959
vt 0.500000 0.000000
vt 0.625000 0.000000
vn -0.5444 -0.8175 -0.1877
vn 0.2421 -0.8243 -0.5118
vn 0.5444 -0.8175 0.1877
vn -0.2421 -0.8243 0.5118
vn 0.0000 1.0000 0.0000
vn 0.3137 0.9432 0.1089
vn -0.1366 0.9471 0.2906
vn -0.3137 0.9432 -0.1089
vn 0.1366 0.9471 -0.2906
vn -0.5138 0.8391 -0.1783
vn 0.2252 0.8483 -0.4791
vn 0.5138 0.8391 0.1783
vn -0.2252 0.8483 0.4792
vn -0.7214 0.6456 -0.2504
vn 0.3196 0.6598 -0.6801
vn 0.7214 0.6456 0.2504
vn -0.3196 0.6598 0.6801
vn 0.7214 0.6456 -0.2504
vn -0.7214 0.6456 0.2504
vn 0.5138 0.8391 -0.1783
vn -0.5138 0.8391 0.1783
vn -0.3137 0.9432 0.1089
vn 0.3137 0.9432 -0.1089
vn 0.5444 -0.8175 -0.1877
vn -0.5444 -0.8175 0.1877
vn 0.3196 0.6598 0.6801
vn -0.3196 0.6598 -0.6801
vn 0.2252 0.8483 0.4792
vn -0.2252 0.8483 -0.4792
vn -0.1366 0.9471 -0.2906
vn 0.1366 0.9471 0.2906
vn 0.2421 -0.8243 0.5118
vn -0.2421 -0.8243 -0.5118
usemtl None
s off
f 30/1/1 21/2/1 6/3/1 19/4/1
f 40/5/2 31/6/2 7/7/2 20/8/2
f 29/9/3 22/10/3 8/11/3 17/12/3
f 39/13/4 32/14/4 5/15/4 18/16/4
f 41/17/5 27/18/5 1/19/5 38/20/5
f 23/21/6 10/22/6 6/23/6 21/24/6
f 33/25/7 11/26/7 7/7/7 31/27/7
f 24/28/8 12/29/8 8/11/8 22/10/8
f 34/30/9 9/31/9 5/32/9 32/33/9
f 25/34/10 14/35/10 10/22/10 23/21/10
f 35/36/11 15/37/11 11/26/11 33/25/11
f 26/38/12 16/39/12 12/29/12 24/28/12
f 36/40/13 13/41/13 9/31/13 34/30/13
f 27/18/14 2/42/14 14/35/14 25/34/14
f 37/43/15 4/44/15 15/37/15 35/36/15
f 28/45/16 3/46/16 16/39/16 26/38/16
f 38/20/17 1/19/17 13/41/17 36/40/17
f 4/44/18 28/45/18 26/38/18 15/37/18
f 1/19/19 27/18/19 25/34/19 13/41/19
f 15/37/20 26/38/20 24/28/20 11/26/20
f 13/41/21 25/34/21 23/21/21 9/31/21
f 11/26/22 24/28/22 22/10/22 7/7/22
f 9/31/23 23/21/23 21/24/23 5/32/23
f 37/43/5 2/42/5 27/18/5 41/17/5
f 20/8/24 7/7/24 22/10/24 29/9/24
f 18/47/25 5/48/25 21/2/25 30/1/25
f 4/44/5 37/43/5 41/17/5 28/45/5
f 3/46/26 38/20/26 36/40/26 16/39/26
f 2/42/27 37/43/27 35/36/27 14/35/27
f 16/39/28 36/40/28 34/30/28 12/29/28
f 14/35/29 35/36/29 33/25/29 10/22/29
f 12/29/30 34/30/30 32/33/30 8/11/30
f 10/22/31 33/25/31 31/27/31 6/23/31
f 28/45/5 41/17/5 38/20/5 3/46/5
f 17/12/32 8/11/32 32/14/32 39/13/32
f 19/4/33 6/3/33 31/6/33 40/5/33
