# Blender v2.80 (sub 75) OBJ File: 'povorots.blend'
# www.blender.org
mtllib ended_column.mtl
o 99_Column.003_Cube.049
v -0.365506 0.395342 0.947321
v -0.277949 1.794936 0.870833
v -0.365506 0.395342 0.729080
v -0.277949 1.794936 0.805568
v -0.127204 0.399134 0.946217
v -0.211660 1.794936 0.870833
v -0.127204 0.399134 0.730184
v -0.211660 1.794936 0.805568
v -0.404403 1.695579 0.995335
v -0.404403 1.695579 0.681066
v -0.085207 1.695579 0.681066
v -0.085207 1.695579 0.995335
v -0.365404 1.678176 0.956938
v -0.365404 1.678176 0.719463
v -0.124205 1.678176 0.719463
v -0.124205 1.678176 0.956938
v -0.344221 1.695579 0.936082
v -0.344221 1.695579 0.740319
v -0.145389 1.695579 0.740319
v -0.145389 1.695579 0.936082
v -0.299757 1.453805 0.883716
v -0.299757 1.453805 0.792686
v -0.192482 1.450013 0.793334
v -0.192482 1.450013 0.883068
v -0.353510 0.401903 0.725754
v -0.353734 0.401150 0.945079
v -0.288577 1.447244 0.788570
v -0.288707 1.447998 0.882172
v -0.201033 1.447244 0.788570
v -0.136099 0.401903 0.725754
v -0.135876 0.401150 0.945079
v -0.200903 1.447998 0.882172
v -0.171448 1.618754 0.911906
v -0.085207 0.230393 0.995335
v -0.404403 0.230393 0.995335
v -0.318162 1.618754 0.911906
v -0.318162 1.618754 0.764496
v -0.404403 0.230393 0.681066
v -0.085207 0.230393 0.681066
v -0.171448 1.618754 0.764496
vt 0.500000 0.000000
vt 0.625000 0.000000
vt 0.625000 0.250000
vt 0.500000 0.250000
vt 0.625000 0.500000
vt 0.500000 0.500000
vt 0.625000 0.750000
vt 0.500000 0.750000
vt 0.625000 1.000000
vt 0.500000 1.000000
vt 0.125000 0.500000
vt 0.375000 0.500000
vt 0.375000 0.750000
vt 0.125000 0.750000
vt 0.724041 0.599041
vt 0.775959 0.599041
vt 0.775959 0.650959
vt 0.724041 0.650959
vt 0.844456 0.719455
vt 0.844456 0.530544
vt 0.875000 0.500000
vt 0.875000 0.750000
vt 0.655545 0.530544
vt 0.655544 0.719456
vt 0.827864 0.702864
vt 0.827864 0.547136
vt 0.672136 0.547136
vt 0.672136 0.702864
vt 0.390374 0.784981
vt 0.484626 0.806365
vt 0.484626 0.943635
vt 0.390374 0.965019
vt 0.390192 0.534493
vt 0.484808 0.554907
vt 0.484808 0.695093
vt 0.390192 0.715507
vt 0.390442 0.285141
vt 0.484558 0.306598
vt 0.484558 0.443402
vt 0.390442 0.464859
vt 0.389851 0.033691
vt 0.485149 0.053743
vt 0.485149 0.196257
vt 0.389851 0.216309
vt 0.375000 0.250000
vt 0.375000 0.000000
vt 0.375000 1.000000
vn -0.6652 -0.7467 0.0000
vn 0.0000 -0.7356 -0.6774
vn 0.6652 -0.7467 0.0000
vn 0.0000 -0.7356 0.6774
vn 0.0000 -1.0000 0.0000
vn 0.0000 1.0000 0.0000
vn 0.4075 0.9132 0.0000
vn 0.0000 0.9108 0.4128
vn -0.4075 0.9132 0.0000
vn 0.0000 0.9108 -0.4128
vn -0.6348 0.7727 0.0000
vn 0.0000 0.7678 -0.6407
vn 0.6348 0.7727 0.0000
vn 0.0000 0.7678 0.6407
vn -0.8319 0.5549 0.0000
vn 0.0000 0.5489 -0.8359
vn 0.8319 0.5549 0.0000
vn 0.0000 0.5489 0.8359
vn 0.0000 0.0600 0.9982
vn 0.9981 0.0620 0.0000
vn 0.0000 0.0600 -0.9982
vn -0.9981 0.0620 0.0000
vn -0.9733 0.2295 0.0000
vn -0.7992 0.0135 0.6009
vn -0.7992 0.0135 -0.6009
vn -0.9938 -0.1109 0.0000
vn 0.7776 0.0105 0.6287
vn 0.9704 0.2415 0.0000
vn 0.7776 0.0105 -0.6287
vn 0.9923 -0.1237 0.0000
vn -0.7065 -0.0014 0.7077
vn 0.0000 0.2823 0.9593
vn 0.7065 -0.0014 0.7077
vn 0.0000 -0.1715 0.9852
vn 0.6496 0.0053 -0.7603
vn 0.0000 0.2521 -0.9677
vn -0.6496 0.0053 -0.7603
vn 0.0000 -0.1390 -0.9903
usemtl None
s off
f 36/1/1 9/2/1 10/3/1 37/4/1
f 37/4/2 10/3/2 11/5/2 40/6/2
f 40/6/3 11/5/3 12/7/3 33/8/3
f 33/8/4 12/7/4 9/9/4 36/10/4
f 38/11/5 39/12/5 34/13/5 35/14/5
f 8/15/6 4/16/6 2/17/6 6/18/6
f 13/19/7 14/20/7 10/21/7 9/22/7
f 14/20/8 15/23/8 11/5/8 10/21/8
f 15/23/9 16/24/9 12/7/9 11/5/9
f 16/24/10 13/19/10 9/22/10 12/7/10
f 17/25/11 18/26/11 14/20/11 13/19/11
f 18/26/12 19/27/12 15/23/12 14/20/12
f 19/27/13 20/28/13 16/24/13 15/23/13
f 20/28/14 17/25/14 13/19/14 16/24/14
f 2/17/15 4/16/15 18/26/15 17/25/15
f 4/16/16 8/15/16 19/27/16 18/26/16
f 8/15/17 6/18/17 20/28/17 19/27/17
f 6/18/18 2/17/18 17/25/18 20/28/18
f 31/29/19 32/30/19 28/31/19 26/32/19
f 7/33/20 23/34/20 24/35/20 5/36/20
f 25/37/21 27/38/21 29/39/21 30/40/21
f 1/41/22 21/42/22 22/43/22 3/44/22
f 1/41/23 3/44/23 38/45/23 35/46/23
f 3/44/24 22/43/24 37/4/24 38/45/24
f 21/42/25 1/41/25 35/46/25 36/1/25
f 22/43/26 21/42/26 36/1/26 37/4/26
f 23/34/27 7/33/27 39/12/27 40/6/27
f 7/33/28 5/36/28 34/13/28 39/12/28
f 5/36/29 24/35/29 33/8/29 34/13/29
f 24/35/30 23/34/30 40/6/30 33/8/30
f 32/30/31 31/29/31 34/13/31 33/8/31
f 31/29/32 26/32/32 35/47/32 34/13/32
f 26/32/33 28/31/33 36/10/33 35/47/33
f 28/31/34 32/30/34 33/8/34 36/10/34
f 27/38/35 25/37/35 38/45/35 37/4/35
f 25/37/36 30/40/36 39/12/36 38/45/36
f 30/40/37 29/39/37 40/6/37 39/12/37
f 29/39/38 27/38/38 37/4/38 40/6/38
