# Blender v2.80 (sub 75) OBJ File: 'povorots.blend'
# www.blender.org
mtllib Creator.mtl
o Creator.002_Cube.032
v -1.213635 -0.151498 1.724933
v -1.741533 -0.139710 -0.018630
v -1.213635 -0.151498 -1.749286
v -1.213635 0.244410 -1.749286
v -0.003424 2.109556 -0.018630
v -0.003424 -0.151498 -1.749286
v -1.396630 -0.144951 -0.012177
v -1.213635 0.255588 1.724933
v -0.641471 0.255588 1.724933
v -0.641471 -0.138403 1.724933
v 0.649514 -0.151498 1.724933
v 1.239764 -0.151498 0.856378
v 1.394140 -0.151498 -0.012177
v -1.244745 -0.141677 0.856378
v 1.747677 -0.139710 -0.018630
v 1.206787 -0.151498 -1.749286
v 1.206787 0.244410 -1.749286
v 0.649514 0.255588 1.724933
v 1.206787 0.255588 1.724933
v 1.206787 -0.138403 1.724933
v -1.276321 -0.148224 -0.880731
v 1.271692 -0.151498 -0.880731
v -0.765409 -0.149861 -1.442857
v 0.756605 -0.151498 -1.442857
v -0.001337 -0.150679 -1.581743
v -0.525144 1.134641 1.393570
v 0.505421 1.134641 1.393570
vt 0.000000 0.000000
vt 0.000000 0.000000
vt 0.000000 0.000000
vt 0.000000 0.000000
vt 0.000000 0.000000
vt 0.000000 0.000000
vt 0.000000 0.000000
vt 0.000000 0.000000
vt 0.000000 0.000000
vt 0.000000 0.000000
vt 0.000000 0.000000
vt 0.000000 0.000000
vt 0.000000 0.000000
vt 0.000000 0.000000
vt 0.000000 0.000000
vt 0.000000 0.000000
vt 0.000000 0.000000
vt 0.000000 0.000000
vt 0.000000 0.000000
vt 0.000000 0.000000
vt 0.000000 0.000000
vt 0.000000 0.000000
vt 0.000000 0.000000
vt 0.000000 0.000000
vt 0.000000 0.000000
vt 0.000000 0.000000
vt 0.000000 0.000000
vn -0.9571 0.0000 0.2898
vn -0.9565 0.0000 -0.2918
vn 0.0000 0.0000 -1.0000
vn 0.9545 0.0000 -0.2983
vn 0.9551 0.0000 0.2963
vn 0.0000 0.0000 1.0000
vn -0.8271 0.0000 -0.5621
vn -0.8482 -0.3028 -0.4345
vn 0.8213 0.0000 -0.5705
vn 0.1473 -0.5625 0.8136
vn -0.1496 -0.5625 0.8132
vn -0.6116 -0.5585 0.5604
vn -0.8447 -0.5218 0.1191
vn -0.8845 -0.4393 -0.1572
vn -0.8492 -0.5251 -0.0565
vn -0.0005 -1.0000 0.0013
vn -0.0000 -1.0000 0.0052
vn -0.0055 -1.0000 0.0034
vn -0.0152 -0.9999 0.0017
vn 0.0114 -0.9999 -0.0074
vn 0.0133 -0.9999 -0.0010
vn 0.0411 -0.9991 0.0072
vn 0.0235 -0.9996 0.0160
vn 0.0000 0.3527 0.9357
vn 0.6129 -0.5588 0.5587
vn 0.8448 -0.5217 0.1190
vn 0.8415 -0.5204 -0.1452
vn 0.8435 -0.2836 -0.4562
vn 0.8734 -0.4868 -0.0134
vn -0.7430 0.6468 0.1720
vn 0.7318 0.6549 0.1884
vn 0.7847 0.6109 0.1049
vn 0.7843 0.6106 -0.1096
vn -0.1950 0.5961 -0.7788
vn 0.1950 0.5961 -0.7788
vn -0.7869 0.6081 -0.1051
vn -0.7873 0.6084 0.1004
vn 0.0000 0.8229 0.5681
usemtl Material.006
s off
f 1/1/1 8/2/1 2/3/1
f 3/4/2 2/3/2 4/5/2
f 3/4/3 4/5/3 6/6/3
f 16/7/3 6/6/3 17/8/3
f 17/8/4 15/9/4 16/7/4
f 19/10/5 20/11/5 15/9/5
f 19/10/6 18/12/6 11/13/6 20/11/6
f 9/14/6 8/2/6 1/1/6 10/15/6
f 11/13/7 18/12/7 12/16/7
f 18/12/8 27/17/8 12/16/8
f 10/15/9 14/18/9 9/14/9
f 25/19/10 5/20/10 23/21/10
f 24/22/11 5/20/11 25/19/11
f 22/23/12 5/20/12 24/22/12
f 13/24/13 5/20/13 22/23/13
f 12/16/14 27/17/14 13/24/14
f 13/24/15 27/17/15 5/20/15
f 16/7/16 24/22/16 25/19/16 6/6/16
f 6/6/17 25/19/17 23/21/17 3/4/17
f 2/3/18 3/4/18 23/21/18 21/25/18
f 21/25/19 7/26/19 2/3/19
f 1/1/20 2/3/20 7/26/20 14/18/20 10/15/20
f 15/9/21 22/23/21 24/22/21 16/7/21
f 20/11/22 12/16/22 13/24/22 22/23/22 15/9/22
f 11/13/23 12/16/23 20/11/23
f 18/12/24 19/10/24 27/17/24
f 21/25/25 23/21/25 5/20/25
f 21/25/26 5/20/26 7/26/26
f 14/18/27 7/26/27 5/20/27
f 9/14/28 14/18/28 26/27/28
f 14/18/29 5/20/29 26/27/29
f 9/14/24 26/27/24 8/2/24
f 8/2/30 26/27/30 5/20/30
f 19/10/31 5/20/31 27/17/31
f 19/10/32 15/9/32 5/20/32
f 5/20/33 15/9/33 17/8/33
f 5/20/34 17/8/34 6/6/34
f 6/6/35 4/5/35 5/20/35
f 2/3/36 5/20/36 4/5/36
f 2/3/37 8/2/37 5/20/37
f 5/20/38 26/27/38 27/17/38
