# Blender v2.80 (sub 75) OBJ File: 'zuk.blend'
# www.blender.org
mtllib visual_rogs.mtl
o _RogL.001_Plane.019
v 0.114086 -0.009157 -0.394281
v 0.262703 -0.009157 -0.252870
v -0.273700 -0.009157 -0.368082
v 0.250982 -0.009157 -0.179933
v 0.275444 -0.009157 -0.185767
v 0.207856 -0.009157 -0.337242
v -0.066894 -0.009157 -0.387058
v -0.275041 -0.009389 -0.260371
v 0.278091 -0.009157 -0.130746
v 0.230234 -0.009389 -0.215132
v 0.160647 -0.008460 -0.294271
v -0.002380 -0.009852 -0.306632
v 0.092802 -0.009156 -0.315452
v 0.200126 -0.008925 -0.254768
v 0.171719 -0.009157 -0.365762
v 0.034344 -0.009157 -0.397987
v 0.112699 0.028619 -0.371012
v 0.241041 0.028619 -0.261101
v -0.222185 0.028619 -0.350649
v 0.230919 0.028619 -0.204411
v 0.252044 0.028619 -0.208945
v 0.193676 0.028619 -0.326679
v -0.043592 0.028619 -0.365398
v -0.223343 0.028387 -0.266930
v 0.254330 0.028619 -0.166179
v 0.213001 0.028387 -0.231769
v 0.152907 0.029316 -0.293280
v 0.012121 0.027924 -0.302887
v 0.094319 0.028620 -0.309742
v 0.187000 0.028852 -0.262576
v 0.162469 0.028619 -0.348845
v 0.043835 0.028619 -0.373892
v 0.110236 0.051104 -0.339384
v 0.202754 0.051104 -0.272347
v -0.131175 0.051104 -0.326964
v 0.203037 0.051104 -0.243601
v 0.223036 0.051104 -0.240536
v 0.168610 0.051104 -0.312344
v -0.002431 0.051104 -0.335960
v -0.132010 0.050872 -0.291582
v 0.229722 0.047610 -0.205382
v 0.189544 0.052199 -0.260207
v 0.139221 0.051801 -0.305593
v 0.037731 0.050409 -0.313393
v 0.096986 0.051105 -0.309257
v 0.175016 0.051337 -0.273247
v 0.146114 0.051104 -0.325864
v 0.060593 0.051104 -0.341140
v 0.113090 -0.032122 -0.383632
v 0.247416 -0.032122 -0.256816
v -0.237407 -0.032122 -0.360137
v 0.236822 -0.032122 -0.191408
v 0.258932 -0.032122 -0.196640
v 0.197843 -0.032122 -0.332480
v -0.050487 -0.032122 -0.377154
v -0.238619 -0.032353 -0.263543
v 0.261324 -0.032122 -0.147297
v 0.218069 -0.032353 -0.222973
v 0.155174 -0.031424 -0.293945
v 0.007824 -0.032817 -0.305029
v 0.093853 -0.032121 -0.312939
v 0.190856 -0.031889 -0.258519
v 0.165181 -0.032122 -0.358056
v 0.041016 -0.032122 -0.386955
vt 0.687500 1.000000
vt 0.687500 1.000000
vt 0.750000 1.000000
vt 0.750000 1.000000
vt 0.687500 1.000000
vt 0.687500 1.000000
vt 0.625000 1.000000
vt 0.625000 1.000000
vt 0.593750 1.000000
vt 0.593750 1.000000
vt 0.562500 1.000000
vt 0.562500 1.000000
vt 1.000000 0.000000
vt 1.000000 0.000000
vt 1.000000 0.500000
vt 1.000000 0.500000
vt 0.625000 1.000000
vt 0.250000 0.000000
vt 0.250000 0.000000
vt 0.500000 0.000000
vt 0.500000 0.000000
vt 0.750000 1.000000
vt 0.000000 1.000000
vt 0.000000 1.000000
vt 0.000000 0.500000
vt 0.000000 0.500000
vt 0.000000 0.000000
vt 0.000000 0.000000
vt 0.500000 1.000000
vt 0.500000 1.000000
vt 0.000000 0.250000
vt 0.000000 0.250000
vt 1.000000 0.750000
vt 1.000000 0.750000
vt 1.000000 1.000000
vt 1.000000 1.000000
vt 0.000000 0.000000
vt 0.000000 0.250000
vt 0.000000 0.500000
vt 0.000000 1.000000
vt 0.500000 1.000000
vt 0.562500 1.000000
vt 0.593750 1.000000
vt 0.750000 1.000000
vt 1.000000 1.000000
vt 1.000000 0.750000
vt 1.000000 0.500000
vt 1.000000 0.000000
vt 0.500000 0.000000
vt 0.250000 0.000000
vt 0.000000 0.000000
vt 0.250000 0.000000
vt 0.500000 0.000000
vt 1.000000 0.000000
vt 1.000000 0.500000
vt 1.000000 0.750000
vt 1.000000 1.000000
vt 0.625000 1.000000
vt 0.593750 1.000000
vt 0.562500 1.000000
vt 0.500000 1.000000
vt 0.000000 1.000000
vt 0.000000 0.500000
vt 0.000000 0.250000
vn -0.7759 0.2121 0.5942
vn -0.6699 -0.0029 0.7425
vn 0.0882 -0.1421 0.9859
vn 0.8759 0.4499 -0.1744
vn -0.2826 -0.1078 0.9532
vn 0.5428 0.4306 -0.7211
vn -0.7780 -0.1126 0.6182
vn -0.0747 0.5156 -0.8536
vn 0.3754 0.4759 -0.7954
vn 0.1587 -0.1025 0.9820
vn 0.0376 0.5279 -0.8485
vn -0.0860 0.5431 -0.8352
vn 0.8623 0.5045 -0.0435
vn 0.7647 0.3789 -0.5212
vn -0.8427 -0.1320 0.5219
vn -0.8610 -0.1049 0.4976
vn -0.6858 -0.1247 0.7170
vn -0.5903 0.8072 -0.0058
vn 0.0032 1.0000 0.0081
vn -0.2394 0.9709 -0.0002
vn 0.0168 0.2074 0.9781
vn 0.6399 0.7305 -0.2384
vn -0.1943 0.2047 0.9593
vn 0.3542 0.7685 -0.5330
vn -0.7344 0.0111 0.6787
vn -0.0447 0.8146 -0.5784
vn 0.2366 0.7885 -0.5678
vn 0.1317 0.3750 0.9176
vn 0.0225 0.8172 -0.5759
vn -0.0504 0.8310 -0.5540
vn 0.6438 0.7642 -0.0399
vn 0.5176 0.7566 -0.3996
vn -0.8130 -0.0546 0.5798
vn -0.8367 -0.0247 0.5471
vn -0.0007 -1.0000 -0.0027
vn -0.0817 -0.4411 -0.8937
vn 0.4061 -0.3958 -0.8237
vn 0.1654 0.1345 0.9770
vn 0.0419 -0.4223 -0.9055
vn -0.0954 -0.4522 -0.8868
vn 0.8202 -0.5707 -0.0396
vn 0.7577 -0.4261 -0.4944
vn -0.8295 0.2698 0.4889
vn -0.8395 0.2819 0.4644
vn -0.6946 0.1709 0.6988
vn -0.5336 -0.8457 -0.0086
vn 0.0905 0.1109 0.9897
vn 0.8350 -0.5268 -0.1591
vn -0.2967 0.0874 0.9510
vn 0.5666 -0.3998 -0.7206
usemtl None
s off
f 14/1/1 62/2/1 58/3/1 10/4/1
f 30/5/2 46/6/2 43/7/2 27/8/2
f 13/9/3 29/10/3 28/11/3 12/12/3
f 2/13/4 18/14/4 21/15/4 5/16/4
f 11/17/5 27/8/5 29/10/5 13/9/5
f 15/18/6 31/19/6 22/20/6 6/21/6
f 10/4/7 26/22/7 30/5/7 14/1/7
f 3/23/8 19/24/8 23/25/8 7/26/8
f 1/27/9 17/28/9 31/19/9 15/18/9
f 12/12/10 28/11/10 24/29/10 8/30/10
f 16/31/11 32/32/11 17/28/11 1/27/11
f 7/26/12 23/25/12 32/32/12 16/31/12
f 5/16/13 21/15/13 25/33/13 9/34/13
f 6/21/14 22/20/14 18/14/14 2/13/14
f 4/35/15 20/36/15 26/22/15 10/4/15
f 9/34/16 25/33/16 20/36/16 4/35/16
f 14/1/17 30/5/17 27/8/17 11/17/17
f 8/30/18 24/29/18 19/24/18 3/23/18
f 33/37/19 48/38/19 39/39/19 35/40/19 40/41/19 44/42/19 45/43/19 43/7/19 46/6/19 42/44/19 36/45/19 41/46/19 37/47/19 34/48/19 38/49/19 47/50/19
f 24/29/20 40/41/20 35/40/20 19/24/20
f 29/10/21 45/43/21 44/42/21 28/11/21
f 18/14/22 34/48/22 37/47/22 21/15/22
f 27/8/23 43/7/23 45/43/23 29/10/23
f 31/19/24 47/50/24 38/49/24 22/20/24
f 26/22/25 42/44/25 46/6/25 30/5/25
f 19/24/26 35/40/26 39/39/26 23/25/26
f 17/28/27 33/37/27 47/50/27 31/19/27
f 28/11/28 44/42/28 40/41/28 24/29/28
f 32/32/29 48/38/29 33/37/29 17/28/29
f 23/25/30 39/39/30 48/38/30 32/32/30
f 21/15/31 37/47/31 41/46/31 25/33/31
f 22/20/32 38/49/32 34/48/32 18/14/32
f 20/36/33 36/45/33 42/44/33 26/22/33
f 25/33/34 41/46/34 36/45/34 20/36/34
f 49/51/35 63/52/35 54/53/35 50/54/35 53/55/35 57/56/35 52/57/35 58/3/35 62/2/35 59/58/35 61/59/35 60/60/35 56/61/35 51/62/35 55/63/35 64/64/35
f 7/26/36 55/63/36 51/62/36 3/23/36
f 15/18/37 63/52/37 49/51/37 1/27/37
f 8/30/38 56/61/38 60/60/38 12/12/38
f 1/27/39 49/51/39 64/64/39 16/31/39
f 16/31/40 64/64/40 55/63/40 7/26/40
f 9/34/41 57/56/41 53/55/41 5/16/41
f 2/13/42 50/54/42 54/53/42 6/21/42
f 10/4/43 58/3/43 52/57/43 4/35/43
f 4/35/44 52/57/44 57/56/44 9/34/44
f 11/17/45 59/58/45 62/2/45 14/1/45
f 3/23/46 51/62/46 56/61/46 8/30/46
f 12/12/47 60/60/47 61/59/47 13/9/47
f 5/16/48 53/55/48 50/54/48 2/13/48
f 13/9/49 61/59/49 59/58/49 11/17/49
f 6/21/50 54/53/50 63/52/50 15/18/50
o _RogR.001_Plane.018
v 0.114086 -0.010336 0.394866
v 0.262703 -0.010336 0.253275
v -0.273700 -0.010336 0.368634
v 0.250982 -0.010336 0.180245
v 0.275444 -0.010336 0.186087
v 0.207856 -0.010336 0.337755
v -0.066894 -0.010336 0.387634
v -0.275041 -0.010575 0.260785
v 0.278091 -0.010336 0.130995
v 0.230234 -0.010575 0.215489
v 0.160647 -0.009613 0.294729
v -0.002380 -0.011055 0.307106
v 0.092803 -0.010334 0.315937
v 0.200125 -0.010094 0.255176
v 0.171719 -0.010336 0.366311
v 0.034345 -0.010336 0.398577
v 0.112699 0.028797 0.371568
v 0.241041 0.028797 0.261516
v -0.222185 0.028797 0.351179
v 0.230919 0.028797 0.204754
v 0.252044 0.028797 0.209294
v 0.193676 0.028797 0.327178
v -0.043592 0.028797 0.365947
v -0.223344 0.028557 0.267354
v 0.254330 0.028797 0.166474
v 0.213001 0.028557 0.232147
v 0.152908 0.029520 0.293737
v 0.012121 0.028078 0.303356
v 0.094319 0.028799 0.310220
v 0.187001 0.029039 0.262994
v 0.162469 0.028797 0.349373
v 0.043835 0.028797 0.374452
v 0.110236 0.052090 0.339899
v 0.202755 0.052090 0.272777
v -0.131175 0.052090 0.327464
v 0.203037 0.052090 0.243994
v 0.223036 0.052090 0.240926
v 0.168610 0.052090 0.312825
v -0.002431 0.052090 0.336471
v -0.132010 0.051850 0.292036
v 0.229722 0.048470 0.205727
v 0.189544 0.053224 0.260622
v 0.139221 0.052812 0.306065
v 0.037731 0.051370 0.313875
v 0.096986 0.052091 0.309734
v 0.175016 0.052331 0.273678
v 0.146114 0.052090 0.326362
v 0.060593 0.052090 0.341658
v 0.113090 -0.034125 0.384204
v 0.247416 -0.034125 0.257227
v -0.237407 -0.034125 0.360679
v 0.236822 -0.034125 0.191735
v 0.258932 -0.034125 0.196973
v 0.197843 -0.034125 0.332987
v -0.050487 -0.034125 0.377718
v -0.238619 -0.034365 0.263962
v 0.261325 -0.034125 0.147567
v 0.218069 -0.034365 0.223340
v 0.155174 -0.033402 0.294402
v 0.007824 -0.034844 0.305501
v 0.093854 -0.034123 0.313421
v 0.190856 -0.033883 0.258931
v 0.165182 -0.034125 0.358595
v 0.041016 -0.034125 0.387531
vt 0.687500 1.000000
vt 0.750000 1.000000
vt 0.750000 1.000000
vt 0.687500 1.000000
vt 0.687500 1.000000
vt 0.625000 1.000000
vt 0.625000 1.000000
vt 0.687500 1.000000
vt 0.593750 1.000000
vt 0.562500 1.000000
vt 0.562500 1.000000
vt 0.593750 1.000000
vt 1.000000 0.000000
vt 1.000000 0.500000
vt 1.000000 0.500000
vt 1.000000 0.000000
vt 0.625000 1.000000
vt 0.250000 0.000000
vt 0.500000 0.000000
vt 0.500000 0.000000
vt 0.250000 0.000000
vt 0.750000 1.000000
vt 0.000000 1.000000
vt 0.000000 0.500000
vt 0.000000 0.500000
vt 0.000000 1.000000
vt 0.000000 0.000000
vt 0.000000 0.000000
vt 0.500000 1.000000
vt 0.500000 1.000000
vt 0.000000 0.250000
vt 0.000000 0.250000
vt 1.000000 0.750000
vt 1.000000 0.750000
vt 1.000000 1.000000
vt 1.000000 1.000000
vt 0.000000 0.000000
vt 0.250000 0.000000
vt 0.500000 0.000000
vt 1.000000 0.000000
vt 1.000000 0.500000
vt 1.000000 0.750000
vt 1.000000 1.000000
vt 0.750000 1.000000
vt 0.593750 1.000000
vt 0.562500 1.000000
vt 0.500000 1.000000
vt 0.000000 1.000000
vt 0.000000 0.500000
vt 0.000000 0.250000
vt 0.000000 0.000000
vt 0.000000 0.250000
vt 0.000000 0.500000
vt 0.000000 1.000000
vt 0.500000 1.000000
vt 0.562500 1.000000
vt 0.593750 1.000000
vt 0.625000 1.000000
vt 1.000000 1.000000
vt 1.000000 0.750000
vt 1.000000 0.500000
vt 1.000000 0.000000
vt 0.500000 0.000000
vt 0.250000 0.000000
vn -0.7774 0.2052 -0.5946
vn -0.6703 -0.0028 -0.7421
vn 0.0884 -0.1374 -0.9866
vn 0.8820 0.4374 0.1754
vn -0.2830 -0.1042 -0.9534
vn 0.5466 0.4186 0.7253
vn -0.7787 -0.1088 -0.6179
vn -0.0754 0.5028 0.8611
vn 0.3786 0.4634 0.8012
vn 0.1590 -0.0991 -0.9823
vn 0.0380 0.5150 0.8564
vn -0.0869 0.5301 0.8434
vn 0.8699 0.4913 0.0438
vn 0.7687 0.3677 0.5233
vn -0.8435 -0.1276 -0.5217
vn -0.8616 -0.1013 -0.4973
vn -0.6866 -0.1205 -0.7170
vn -0.6038 0.7971 0.0059
vn 0.0033 1.0000 -0.0084
vn -0.2475 0.9689 0.0002
vn 0.0168 0.2008 -0.9795
vn 0.6520 0.7184 0.2426
vn -0.1948 0.1981 -0.9606
vn 0.3616 0.7575 0.5435
vn -0.7348 0.0108 -0.6782
vn -0.0457 0.8051 0.5914
vn 0.2418 0.7781 0.5797
vn 0.1325 0.3641 -0.9219
vn 0.0231 0.8079 0.5889
vn -0.0516 0.8221 0.5670
vn 0.6570 0.7528 0.0406
vn 0.5281 0.7452 0.4072
vn -0.8134 -0.0527 -0.5793
vn -0.8370 -0.0239 -0.5466
vn -0.0008 -1.0000 0.0028
vn -0.0823 -0.4291 0.8995
vn 0.4086 -0.3845 0.8278
vn 0.1657 0.1301 -0.9776
vn 0.0422 -0.4106 0.9109
vn -0.0961 -0.4400 0.8928
vn 0.8295 -0.5571 0.0400
vn 0.7626 -0.4141 0.4970
vn -0.8319 0.2612 -0.4897
vn -0.8421 0.2729 -0.4652
vn -0.6957 0.1652 -0.6991
vn -0.5471 -0.8370 0.0088
vn 0.0907 0.1072 -0.9901
vn 0.8430 -0.5134 0.1605
vn -0.2971 0.0845 -0.9511
vn 0.5701 -0.3883 0.7241
usemtl None
s off
f 78/65/51 74/66/51 122/67/51 126/68/51
f 94/69/52 91/70/52 107/71/52 110/72/52
f 77/73/53 76/74/53 92/75/53 93/76/53
f 66/77/54 69/78/54 85/79/54 82/80/54
f 75/81/55 77/73/55 93/76/55 91/70/55
f 79/82/56 70/83/56 86/84/56 95/85/56
f 74/66/57 78/65/57 94/69/57 90/86/57
f 67/87/58 71/88/58 87/89/58 83/90/58
f 65/91/59 79/82/59 95/85/59 81/92/59
f 76/74/60 72/93/60 88/94/60 92/75/60
f 80/95/61 65/91/61 81/92/61 96/96/61
f 71/88/62 80/95/62 96/96/62 87/89/62
f 69/78/63 73/97/63 89/98/63 85/79/63
f 70/83/64 66/77/64 82/80/64 86/84/64
f 68/99/65 74/66/65 90/86/65 84/100/65
f 73/97/66 68/99/66 84/100/66 89/98/66
f 78/65/67 75/81/67 91/70/67 94/69/67
f 72/93/68 67/87/68 83/90/68 88/94/68
f 97/101/69 111/102/69 102/103/69 98/104/69 101/105/69 105/106/69 100/107/69 106/108/69 110/72/69 107/71/69 109/109/69 108/110/69 104/111/69 99/112/69 103/113/69 112/114/69
f 88/94/70 83/90/70 99/112/70 104/111/70
f 93/76/71 92/75/71 108/110/71 109/109/71
f 82/80/72 85/79/72 101/105/72 98/104/72
f 91/70/73 93/76/73 109/109/73 107/71/73
f 95/85/74 86/84/74 102/103/74 111/102/74
f 90/86/75 94/69/75 110/72/75 106/108/75
f 83/90/76 87/89/76 103/113/76 99/112/76
f 81/92/77 95/85/77 111/102/77 97/101/77
f 92/75/78 88/94/78 104/111/78 108/110/78
f 96/96/79 81/92/79 97/101/79 112/114/79
f 87/89/80 96/96/80 112/114/80 103/113/80
f 85/79/81 89/98/81 105/106/81 101/105/81
f 86/84/82 82/80/82 98/104/82 102/103/82
f 84/100/83 90/86/83 106/108/83 100/107/83
f 89/98/84 84/100/84 100/107/84 105/106/84
f 113/115/85 128/116/85 119/117/85 115/118/85 120/119/85 124/120/85 125/121/85 123/122/85 126/68/85 122/67/85 116/123/85 121/124/85 117/125/85 114/126/85 118/127/85 127/128/85
f 71/88/86 67/87/86 115/118/86 119/117/86
f 79/82/87 65/91/87 113/115/87 127/128/87
f 72/93/88 76/74/88 124/120/88 120/119/88
f 65/91/89 80/95/89 128/116/89 113/115/89
f 80/95/90 71/88/90 119/117/90 128/116/90
f 73/97/91 69/78/91 117/125/91 121/124/91
f 66/77/92 70/83/92 118/127/92 114/126/92
f 74/66/93 68/99/93 116/123/93 122/67/93
f 68/99/94 73/97/94 121/124/94 116/123/94
f 75/81/95 78/65/95 126/68/95 123/122/95
f 67/87/96 72/93/96 120/119/96 115/118/96
f 76/74/97 77/73/97 125/121/97 124/120/97
f 69/78/98 66/77/98 114/126/98 117/125/98
f 77/73/99 75/81/99 123/122/99 125/121/99
f 70/83/100 79/82/100 127/128/100 118/127/100
