# Blender v2.80 (sub 75) OBJ File: 'zuk.blend'
# www.blender.org
mtllib zuk_lapa_top.mtl
o _Lapa_Top_Plane.005
v 3.305918 0.868004 -1.338659
v 3.610483 0.872628 -0.814537
v 2.372201 0.872628 -1.617898
v 2.068595 0.872628 -1.099048
v 3.968039 0.872628 -0.700416
v 2.693912 0.872628 -1.618352
v 2.108941 0.872628 -1.519848
v 2.694901 0.876387 -1.286393
v 3.138379 0.870533 -1.129201
v 4.217461 0.872628 -0.547553
v 3.580230 0.870316 -1.103555
v 2.913142 0.870316 -1.540851
v 2.534131 0.872628 -1.628696
v 2.240390 0.872628 -1.567095
v 2.092294 0.872628 -1.324242
v 2.404568 0.876387 -1.258079
v 4.151497 0.872628 -0.526799
v 3.999054 0.872628 -0.565832
v 3.822300 0.872628 -0.643889
v 3.400643 0.872628 -0.952790
v 2.917240 0.870887 -1.236294
v 2.550453 0.876387 -1.279305
v 2.236105 0.874507 -1.185588
v 4.169127 0.872628 -0.591027
v 4.068310 0.872628 -0.643482
v 3.787673 0.871828 -0.871080
v 3.306053 0.940706 -1.339183
v 3.610618 0.945330 -0.815061
v 2.372298 0.945330 -1.618422
v 2.068693 0.945330 -1.099573
v 3.968184 0.945330 -0.701012
v 2.694010 0.945330 -1.618876
v 2.109039 0.945330 -1.520372
v 2.694999 0.949089 -1.286917
v 3.138515 0.943235 -1.129725
v 4.217597 0.945330 -0.548077
v 3.580366 0.943018 -1.104079
v 2.913278 0.943018 -1.541375
v 2.534229 0.945330 -1.629220
v 2.240488 0.945330 -1.567619
v 2.092392 0.945330 -1.324766
v 2.404666 0.949089 -1.258603
v 4.151632 0.945330 -0.527323
v 3.999190 0.945330 -0.566356
v 3.822435 0.945330 -0.644413
v 3.400779 0.945330 -0.953314
v 2.917375 0.943589 -1.236818
v 2.550551 0.949089 -1.279829
v 2.236203 0.947209 -1.186112
v 4.169263 0.945330 -0.591551
v 4.068446 0.945330 -0.644006
v 3.787808 0.944530 -0.871604
v 3.304188 0.996782 -1.293013
v 3.646971 1.001064 -0.832237
v 2.382682 1.001120 -1.566677
v 2.113060 1.001120 -1.179078
v 3.927864 1.001064 -0.712912
v 2.676933 1.001120 -1.557362
v 2.143414 1.001120 -1.499614
v 2.683004 1.004878 -1.303513
v 3.228998 0.999124 -1.143951
v 4.124502 1.001064 -0.576223
v 3.578605 0.998923 -1.080095
v 2.866373 0.998808 -1.491806
v 2.530626 1.001120 -1.570069
v 2.262910 1.001120 -1.531791
v 2.131232 1.001120 -1.350551
v 2.417888 1.004878 -1.290584
v 4.071404 1.001064 -0.555880
v 3.952661 1.001064 -0.606270
v 3.813525 1.001064 -0.680521
v 3.483265 1.001064 -0.967144
v 2.876706 0.999378 -1.258850
v 2.550993 1.004878 -1.302432
v 2.264929 1.002999 -1.240216
v 4.086644 1.001064 -0.615501
v 4.006996 1.001064 -0.662134
v 3.786742 1.000322 -0.867274
v 3.250270 1.032958 -1.238843
v 3.702418 1.037239 -0.856749
v 2.407619 1.037295 -1.457090
v 2.170053 1.037295 -1.259565
v 3.876187 1.037239 -0.720271
v 2.687161 1.037295 -1.463720
v 2.183733 1.037295 -1.414860
v 2.706599 1.041054 -1.358712
v 3.226211 1.035299 -1.199914
v 4.064253 1.037239 -0.607467
v 3.544310 1.035099 -1.053415
v 2.868877 1.034983 -1.423940
v 2.549524 1.037295 -1.481401
v 2.295641 1.037295 -1.435636
v 2.179524 1.037295 -1.345848
v 2.412013 1.041054 -1.348681
v 4.016283 1.037239 -0.603769
v 3.906233 1.037239 -0.666415
v 3.829728 1.037239 -0.720540
v 3.502025 1.037239 -1.031332
v 2.896011 1.035554 -1.326900
v 2.583530 1.041054 -1.373824
v 2.280003 1.039175 -1.305712
v 4.026166 1.037239 -0.628126
v 3.950390 1.037239 -0.668397
v 3.742493 1.036498 -0.863410
v 4.217461 0.872628 -0.547553
v 3.138379 0.870533 -1.129201
v 2.693912 0.872628 -1.618352
v 3.968039 0.872628 -0.700416
v 2.068595 0.872628 -1.099048
v 2.372201 0.872628 -1.617898
v 2.694901 0.876387 -1.286393
v 2.108941 0.872628 -1.519848
v 3.610483 0.872628 -0.814537
v 3.305918 0.868004 -1.338659
v 2.240390 0.872628 -1.567095
v 2.534131 0.872628 -1.628696
v 2.913142 0.870316 -1.540851
v 3.580230 0.870316 -1.103555
v 2.092294 0.872628 -1.324242
v 2.404568 0.876387 -1.258079
v 4.151497 0.872628 -0.526799
v 3.999054 0.872628 -0.565832
v 3.822300 0.872628 -0.643889
v 3.400643 0.872628 -0.952790
v 2.917240 0.870887 -1.236294
v 2.550453 0.876387 -1.279305
v 2.236105 0.874507 -1.185588
v 4.169127 0.872628 -0.591027
v 4.068310 0.872628 -0.643482
v 3.787673 0.871828 -0.871080
v 4.152166 0.839626 -0.575274
v 3.141879 0.837531 -1.193731
v 2.706702 0.839626 -1.556799
v 3.919419 0.839626 -0.741115
v 2.124756 0.839626 -1.155694
v 2.403071 0.839626 -1.560910
v 2.719086 0.843384 -1.355647
v 2.153012 0.839626 -1.456247
v 3.588790 0.839626 -0.901002
v 3.288067 0.835002 -1.305500
v 2.279036 0.839626 -1.518363
v 2.555824 0.839626 -1.568076
v 2.915323 0.837314 -1.486140
v 3.549336 0.837314 -1.097296
v 2.141025 0.839626 -1.308229
v 2.442377 0.826889 -1.306485
v 4.092552 0.839626 -0.575041
v 3.950048 0.839626 -0.623201
v 3.787673 0.839626 -0.730255
v 3.389384 0.839626 -1.024179
v 2.930869 0.837884 -1.280928
v 2.580073 0.843384 -1.324593
v 2.287383 0.841505 -1.279705
v 4.105502 0.839626 -0.609449
v 4.009772 0.839626 -0.655954
v 3.747467 0.838825 -0.892064
vt 0.000000 0.000000
vt 0.250000 0.000000
vt 0.375000 0.000000
vt 0.500000 0.000000
vt 0.562500 0.000000
vt 0.625000 0.000000
vt 0.750000 0.000000
vt 0.875000 0.000000
vt 0.937500 0.000000
vt 0.968750 0.000000
vt 1.000000 0.000000
vt 1.000000 0.125000
vt 1.000000 0.250000
vt 1.000000 0.375000
vt 1.000000 0.500000
vt 1.000000 0.625000
vt 1.000000 0.750000
vt 1.000000 0.875000
vt 1.000000 1.000000
vt 0.750000 1.000000
vt 0.500000 1.000000
vt 0.250000 1.000000
vt 0.000000 1.000000
vt 0.000000 0.750000
vt 0.000000 0.500000
vt 0.000000 0.250000
vt 0.375000 0.000000
vt 0.375000 0.000000
vt 0.500000 0.000000
vt 0.500000 0.000000
vt 1.000000 0.125000
vt 1.000000 0.250000
vt 0.562500 0.000000
vt 0.625000 0.000000
vt 0.968750 0.000000
vt 1.000000 0.000000
vt 0.750000 0.000000
vt 0.875000 0.000000
vt 1.000000 0.875000
vt 1.000000 1.000000
vt 0.937500 0.000000
vt 0.000000 0.000000
vt 0.250000 0.000000
vt 0.250000 1.000000
vt 0.000000 1.000000
vt 0.000000 0.500000
vt 0.000000 0.250000
vt 0.000000 0.750000
vt 1.000000 0.375000
vt 0.500000 1.000000
vt 0.750000 1.000000
vt 1.000000 0.500000
vt 1.000000 0.625000
vt 1.000000 0.750000
vt 1.000000 0.000000
vt 1.000000 0.125000
vt 0.000000 1.000000
vt 0.000000 0.750000
vt 0.000000 0.500000
vt 1.000000 0.250000
vt 1.000000 0.375000
vt 0.500000 1.000000
vt 0.250000 1.000000
vt 0.750000 1.000000
vt 1.000000 0.500000
vt 1.000000 0.625000
vt 1.000000 1.000000
vt 1.000000 0.750000
vt 1.000000 0.875000
vt 0.000000 0.250000
vt 0.000000 0.000000
vt 0.562500 0.000000
vt 0.625000 0.000000
vt 0.968750 0.000000
vt 0.750000 0.000000
vt 0.875000 0.000000
vt 0.937500 0.000000
vt 0.250000 0.000000
vt 0.750000 1.000000
vt 0.500000 1.000000
vt 0.250000 1.000000
vt 1.000000 0.500000
vt 1.000000 0.625000
vt 1.000000 1.000000
vt 1.000000 0.375000
vt 1.000000 0.750000
vt 1.000000 0.875000
vt 0.000000 0.250000
vt 0.000000 0.000000
vt 1.000000 0.125000
vt 1.000000 0.250000
vt 0.562500 0.000000
vt 0.625000 0.000000
vt 0.968750 0.000000
vt 1.000000 0.000000
vt 0.750000 0.000000
vt 0.875000 0.000000
vt 0.500000 0.000000
vt 0.937500 0.000000
vt 0.250000 0.000000
vt 0.375000 0.000000
vt 0.000000 1.000000
vt 0.000000 0.500000
vt 0.000000 0.750000
vt 0.750000 1.000000
vt 0.750000 1.000000
vt 1.000000 1.000000
vt 1.000000 1.000000
vt 1.000000 0.250000
vt 1.000000 0.250000
vt 1.000000 0.125000
vt 1.000000 0.125000
vt 0.500000 1.000000
vt 0.500000 1.000000
vt 1.000000 0.000000
vt 1.000000 0.000000
vt 0.375000 0.000000
vt 0.375000 0.000000
vt 0.250000 0.000000
vt 0.250000 0.000000
vt 0.000000 0.000000
vt 0.000000 0.000000
vt 0.000000 0.250000
vt 0.000000 0.500000
vt 0.000000 0.750000
vt 0.000000 1.000000
vt 0.250000 1.000000
vt 1.000000 0.875000
vt 1.000000 0.750000
vt 1.000000 0.625000
vt 1.000000 0.500000
vt 1.000000 0.375000
vt 0.968750 0.000000
vt 0.937500 0.000000
vt 0.875000 0.000000
vt 0.750000 0.000000
vt 0.625000 0.000000
vt 0.562500 0.000000
vt 0.500000 0.000000
vt 0.500000 0.000000
vt 0.562500 0.000000
vt 0.625000 0.000000
vt 0.750000 0.000000
vt 0.875000 0.000000
vt 0.937500 0.000000
vt 0.968750 0.000000
vt 1.000000 0.375000
vt 1.000000 0.500000
vt 1.000000 0.625000
vt 1.000000 0.750000
vt 1.000000 0.875000
vt 0.250000 1.000000
vt 0.000000 1.000000
vt 0.000000 0.750000
vt 0.000000 0.500000
vt 0.000000 0.250000
vn -0.0022 -1.0000 0.0071
vn 0.6944 0.2110 -0.6880
vn -0.5582 0.0070 0.8297
vn 0.4616 -0.0073 -0.8871
vn -0.6274 0.0068 0.7787
vn 0.3001 0.0063 0.9539
vn 0.6687 -0.0066 -0.7435
vn 0.4940 -0.0077 -0.8694
vn 0.4589 0.0058 0.8885
vn -0.2480 0.0074 0.9687
vn 0.6508 -0.0067 -0.7592
vn 0.7461 -0.0062 -0.6658
vn -0.3596 -0.0062 -0.9331
vn -0.4040 0.0073 0.9147
vn 0.3332 -0.0073 -0.9428
vn 0.6872 -0.0069 -0.7264
vn -0.5502 0.0070 0.8350
vn -0.0665 -0.0071 -0.9978
vn 0.0646 -0.0073 -0.9979
vn -0.4358 0.0073 0.9000
vn -0.3382 -0.0063 -0.9410
vn -0.9964 0.0007 -0.0848
vn 0.0490 0.0071 0.9988
vn -0.9945 0.0006 -0.1047
vn -0.2196 0.0074 0.9756
vn 0.3952 0.0061 0.9186
vn 0.4576 -0.0073 -0.8891
vn 0.1440 0.0069 0.9896
vn -0.4489 0.6493 0.6139
vn -0.0324 0.7056 -0.7079
vn 0.0507 0.7376 -0.6734
vn -0.3271 0.4206 0.8462
vn -0.2545 0.5373 -0.8041
vn -0.8355 0.5451 -0.0699
vn 0.0278 0.3339 0.9422
vn -0.8366 0.5406 -0.0883
vn -0.2103 0.2297 0.9503
vn 0.3023 0.5084 0.8063
vn 0.3165 0.6927 -0.6481
vn 0.1065 0.4264 0.8983
vn -0.3855 0.7369 0.5553
vn 0.4621 0.2796 -0.8416
vn -0.5745 0.4638 0.6744
vn 0.2321 0.7029 0.6724
vn 0.5528 0.6024 -0.5758
vn 0.5009 0.2327 -0.8336
vn 0.3181 0.6348 0.7042
vn -0.3054 0.2216 0.9261
vn 0.5619 0.4522 -0.6927
vn 0.7174 0.1882 -0.6708
vn -0.2471 0.6422 -0.7256
vn -0.4035 0.3700 0.8368
vn 0.2263 0.7493 -0.6223
vn -0.6039 0.7958 -0.0454
vn -0.0784 0.9362 -0.3427
vn -0.0268 0.8730 0.4871
vn -0.5960 0.8004 -0.0639
vn -0.0720 0.8709 0.4862
vn 0.1551 0.8475 0.5077
vn 0.2072 0.8773 -0.4329
vn 0.0603 0.8661 0.4963
vn -0.3064 0.8329 0.4608
vn 0.4255 0.4899 -0.7609
vn -0.4206 0.7993 0.4292
vn 0.1324 0.8201 0.5567
vn 0.5411 0.4871 -0.6855
vn 0.4608 0.5601 -0.6884
vn 0.1978 0.8359 0.5119
vn -0.3600 0.5827 0.7286
vn 0.2983 0.8497 -0.4349
vn 0.4802 0.7279 -0.4894
vn -0.0758 0.9471 -0.3118
vn -0.3661 0.6984 0.6150
vn 0.1287 0.9012 -0.4139
vn 0.5341 0.6841 -0.4968
vn -0.3435 0.8478 0.4041
vn -0.0322 0.9412 -0.3364
vn 0.0400 0.9265 -0.3741
vn -0.1694 0.8609 0.4797
vn 0.0073 0.9996 -0.0262
vn -0.5477 -0.8347 -0.0580
vn -0.2860 -0.8555 0.4318
vn -0.5525 -0.8323 -0.0460
vn -0.2675 -0.8678 0.4187
vn 0.6193 -0.5399 -0.5701
vn 0.4699 -0.6818 -0.5606
vn 0.0022 1.0000 -0.0071
vn -0.0042 -1.0000 0.0043
vn -0.1935 -0.7308 0.6545
vn 0.2689 -0.7925 -0.5473
vn -0.0274 -0.8769 -0.4799
vn -0.2915 -0.7936 0.5340
vn 0.5197 -0.5706 -0.6358
vn 0.6592 -0.2133 -0.7211
vn -0.2171 -0.8500 0.4799
vn -0.1535 -0.8762 0.4568
vn 0.0336 -0.8753 -0.4824
vn 0.0703 -0.8496 0.5226
vn 0.0938 -0.8224 0.5612
vn -0.3599 -0.8265 0.4329
vn -0.1619 -0.8814 -0.4438
vn 0.4155 -0.3827 -0.8252
vn 0.1385 -0.6917 0.7088
vn 0.3813 -0.7157 0.5851
vn 0.1650 -0.8484 -0.5029
vn 0.5685 -0.3086 -0.7626
vn -0.1710 -0.8993 -0.4025
vn 0.1397 -0.8166 0.5600
usemtl None
s off
f 1/1/1 11/2/1 26/3/1 5/4/1 25/5/1 24/6/1 10/7/1 17/8/1 18/9/1 19/10/1 2/11/1 20/12/1 9/13/1 21/14/1 8/15/1 22/16/1 16/17/1 23/18/1 4/19/1 15/20/1 7/21/1 14/22/1 3/23/1 13/24/1 6/25/1 12/26/1
f 52/27/2 78/28/2 57/29/2 31/30/2
f 20/12/3 46/31/3 35/32/3 9/13/3
f 25/5/4 51/33/4 50/34/4 24/6/4
f 19/10/5 45/35/5 28/36/5 2/11/5
f 10/7/6 36/37/6 43/38/6 17/8/6
f 24/6/7 50/34/7 36/37/7 10/7/7
f 5/4/8 31/30/8 51/33/8 25/5/8
f 23/18/9 49/39/9 30/40/9 4/19/9
f 17/8/10 43/38/10 44/41/10 18/9/10
f 1/1/11 27/42/11 37/43/11 11/2/11
f 11/2/12 37/43/12 52/27/12 26/3/12
f 14/22/13 40/44/13 29/45/13 3/23/13
f 18/9/14 44/41/14 45/35/14 19/10/14
f 6/25/15 32/46/15 38/47/15 12/26/15
f 26/3/16 52/27/16 31/30/16 5/4/16
f 2/11/17 28/36/17 46/31/17 20/12/17
f 3/23/18 29/45/18 39/48/18 13/24/18
f 13/24/19 39/48/19 32/46/19 6/25/19
f 9/13/20 35/32/20 47/49/20 21/14/20
f 7/21/21 33/50/21 40/44/21 14/22/21
f 15/20/22 41/51/22 33/50/22 7/21/22
f 8/15/23 34/52/23 48/53/23 22/16/23
f 4/19/24 30/40/24 41/51/24 15/20/24
f 21/14/25 47/49/25 34/52/25 8/15/25
f 16/17/26 42/54/26 49/39/26 23/18/26
f 12/26/27 38/47/27 27/42/27 1/1/27
f 22/16/28 48/53/28 42/54/28 16/17/28
f 28/36/29 54/55/29 72/56/29 46/31/29
f 29/45/30 55/57/30 65/58/30 39/48/30
f 39/48/31 65/58/31 58/59/31 32/46/31
f 35/32/32 61/60/32 73/61/32 47/49/32
f 33/50/33 59/62/33 66/63/33 40/44/33
f 41/51/34 67/64/34 59/62/34 33/50/34
f 34/52/35 60/65/35 74/66/35 48/53/35
f 30/40/36 56/67/36 67/64/36 41/51/36
f 47/49/37 73/61/37 60/65/37 34/52/37
f 42/54/38 68/68/38 75/69/38 49/39/38
f 38/47/39 64/70/39 53/71/39 27/42/39
f 48/53/40 74/66/40 68/68/40 42/54/40
f 46/31/41 72/56/41 61/60/41 35/32/41
f 51/33/42 77/72/42 76/73/42 50/34/42
f 45/35/43 71/74/43 54/55/43 28/36/43
f 36/37/44 62/75/44 69/76/44 43/38/44
f 50/34/45 76/73/45 62/75/45 36/37/45
f 31/30/46 57/29/46 77/72/46 51/33/46
f 49/39/47 75/69/47 56/67/47 30/40/47
f 43/38/48 69/76/48 70/77/48 44/41/48
f 27/42/49 53/71/49 63/78/49 37/43/49
f 37/43/50 63/78/50 78/28/50 52/27/50
f 40/44/51 66/63/51 55/57/51 29/45/51
f 44/41/52 70/77/52 71/74/52 45/35/52
f 32/46/53 58/59/53 64/70/53 38/47/53
f 67/64/54 93/79/54 85/80/54 59/62/54
f 59/62/55 85/80/55 92/81/55 66/63/55
f 60/65/56 86/82/56 100/83/56 74/66/56
f 56/67/57 82/84/57 93/79/57 67/64/57
f 73/61/58 99/85/58 86/82/58 60/65/58
f 68/68/59 94/86/59 101/87/59 75/69/59
f 64/70/60 90/88/60 79/89/60 53/71/60
f 74/66/61 100/83/61 94/86/61 68/68/61
f 72/56/62 98/90/62 87/91/62 61/60/62
f 77/72/63 103/92/63 102/93/63 76/73/63
f 71/74/64 97/94/64 80/95/64 54/55/64
f 62/75/65 88/96/65 95/97/65 69/76/65
f 76/73/66 102/93/66 88/96/66 62/75/66
f 57/29/67 83/98/67 103/92/67 77/72/67
f 75/69/68 101/87/68 82/84/68 56/67/68
f 69/76/69 95/97/69 96/99/69 70/77/69
f 53/71/70 79/89/70 89/100/70 63/78/70
f 63/78/71 89/100/71 104/101/71 78/28/71
f 66/63/72 92/81/72 81/102/72 55/57/72
f 70/77/73 96/99/73 97/94/73 71/74/73
f 58/59/74 84/103/74 90/88/74 64/70/74
f 78/28/75 104/101/75 83/98/75 57/29/75
f 54/55/76 80/95/76 98/90/76 72/56/76
f 55/57/77 81/102/77 91/104/77 65/58/77
f 65/58/78 91/104/78 84/103/78 58/59/78
f 61/60/79 87/91/79 99/85/79 73/61/79
f 90/88/80 84/103/80 91/104/80 81/102/80 92/81/80 85/80/80 93/79/80 82/84/80 101/87/80 94/86/80 100/83/80 86/82/80 99/85/80 87/91/80 98/90/80 80/95/80 97/94/80 96/99/80 95/97/80 88/96/80 102/93/80 103/92/80 83/98/80 104/101/80 89/100/80 79/89/80
f 119/105/81 145/106/81 135/107/81 109/108/81
f 106/109/82 132/110/82 150/111/82 124/112/82
f 112/113/83 138/114/83 145/106/83 119/105/83
f 124/112/84 150/111/84 139/115/84 113/116/84
f 130/117/85 156/118/85 144/119/85 118/120/85
f 118/120/86 144/119/86 140/121/86 114/122/86
f 114/122/87 117/123/87 107/124/87 116/125/87 110/126/87 115/127/87 112/113/87 119/105/87 109/108/87 127/128/87 120/129/87 126/130/87 111/131/87 125/132/87 106/109/87 124/112/87 113/116/87 123/133/87 122/134/87 121/135/87 105/136/87 128/137/87 129/138/87 108/139/87 130/117/87 118/120/87
f 140/121/88 144/119/88 156/118/88 134/140/88 155/141/88 154/142/88 131/143/88 147/144/88 148/145/88 149/146/88 139/115/88 150/111/88 132/110/88 151/147/88 137/148/88 152/149/88 146/150/88 153/151/88 135/107/88 145/106/88 138/114/88 141/152/88 136/153/88 142/154/88 133/155/88 143/156/88
f 122/134/89 148/145/89 147/144/89 121/135/89
f 114/122/90 140/121/90 143/156/90 117/123/90
f 116/125/91 142/154/91 136/153/91 110/126/91
f 123/133/92 149/146/92 148/145/92 122/134/92
f 105/136/93 131/143/93 154/142/93 128/137/93
f 108/139/94 134/140/94 156/118/94 130/117/94
f 125/132/95 151/147/95 132/110/95 106/109/95
f 111/131/96 137/148/96 151/147/96 125/132/96
f 107/124/97 133/155/97 142/154/97 116/125/97
f 126/130/98 152/149/98 137/148/98 111/131/98
f 121/135/99 147/144/99 131/143/99 105/136/99
f 113/116/100 139/115/100 149/146/100 123/133/100
f 110/126/101 136/153/101 141/152/101 115/127/101
f 128/137/102 154/142/102 155/141/102 129/138/102
f 120/129/103 146/150/103 152/149/103 126/130/103
f 109/108/104 135/107/104 153/151/104 127/128/104
f 117/123/105 143/156/105 133/155/105 107/124/105
f 129/138/106 155/141/106 134/140/106 108/139/106
f 115/127/107 141/152/107 138/114/107 112/113/107
f 127/128/108 153/151/108 146/150/108 120/129/108
l 79 87
