# Blender v2.80 (sub 75) OBJ File: 'zuk.blend'
# www.blender.org
mtllib zuk_spinka.mtl
o _Middle_Cube.004
v 1.090242 0.701372 -0.859477
v 1.968203 0.701372 -0.754202
v 1.550745 0.701372 -0.917014
v 1.380630 0.701372 -0.950923
v 1.745526 0.701372 -0.883856
v 2.072572 0.701372 -0.454470
v 1.047807 0.701372 -0.765309
v 1.235436 0.701372 -0.917390
v 1.090242 0.701372 0.858070
v 1.968203 0.701372 0.752795
v 1.550745 0.701372 0.915607
v 2.072572 0.701372 -0.000704
v 1.380630 0.701372 0.949516
v 1.745526 0.701372 0.882449
v 2.072572 0.701372 0.453063
v 1.047807 0.701372 0.763902
v 1.235436 0.701372 0.915983
v 1.090242 0.701372 -0.859477
v 1.968203 0.701372 -0.754202
v 1.550745 0.701372 -0.917014
v 1.380630 0.701372 -0.950923
v 1.745526 0.701372 -0.883856
v 2.072572 0.701372 -0.454470
v 1.047807 0.701372 -0.765309
v 1.235436 0.701372 -0.917390
v 1.090242 0.701372 0.858070
v 1.968203 0.701372 0.752795
v 1.006272 0.725073 0.015014
v 1.550745 0.701372 0.915607
v 2.072572 0.701372 -0.000704
v 1.380630 0.701372 0.949516
v 1.745526 0.701372 0.882449
v 2.072572 0.701372 0.453063
v 1.047807 0.701372 0.763902
v 1.235436 0.701372 0.915983
v 1.086751 1.027252 -0.859477
v 1.964712 1.027252 -0.754202
v 1.547254 1.027252 -0.917014
v 1.377139 1.027252 -0.950923
v 1.742034 1.027252 -0.883856
v 2.069080 1.027252 -0.454470
v 1.018870 1.041882 -0.750000
v 1.231945 1.027252 -0.917390
v 1.086751 1.027252 0.858070
v 1.964712 1.027252 0.752795
v 1.022741 1.027252 -0.000704
v 1.547254 1.027252 0.915607
v 2.069080 1.027252 -0.000704
v 1.377139 1.027252 0.949516
v 1.742034 1.027252 0.882449
v 2.069080 1.027252 0.453063
v 1.019024 1.037723 0.750000
v 1.231945 1.027252 0.915983
v 1.213616 1.157560 -0.712234
v 1.844400 1.157560 -0.623283
v 1.523224 1.157560 -0.739312
v 1.379186 1.157560 -0.768024
v 1.695486 1.157560 -0.709988
v 1.915820 1.157560 -0.418177
v 1.198754 1.157560 -0.670153
v 1.271885 1.157560 -0.743242
v 1.208859 1.157560 0.713875
v 1.844400 1.157560 0.624923
v 1.165122 1.117272 0.000820
v 1.523224 1.157560 0.740953
v 1.915820 1.157560 0.000820
v 1.379186 1.157560 0.769664
v 1.695486 1.157560 0.711628
v 1.915820 1.157560 0.419817
v 1.198754 1.157560 0.696398
v 1.271885 1.157560 0.744882
v 1.209360 0.606130 -0.718614
v 1.840144 0.606130 -0.629662
v 1.518967 0.606130 -0.745692
v 1.374930 0.606130 -0.774404
v 1.691230 0.606130 -0.716368
v 1.911564 0.606130 -0.424556
v 1.194498 0.606130 -0.676533
v 1.267629 0.606130 -0.749622
v 1.204603 0.606130 0.707495
v 1.840144 0.606130 0.618543
v 1.213802 0.606130 -0.005560
v 1.518967 0.606130 0.734573
v 1.911564 0.606130 -0.005560
v 1.374930 0.606130 0.763284
v 1.691230 0.606130 0.705249
v 1.911564 0.606130 0.413437
v 1.194498 0.606130 0.690019
v 1.267629 0.606130 0.738502
v 1.048222 1.041882 -0.500000
v 1.048376 1.037723 0.500000
vt 0.000000 0.000000
vt 0.000000 0.000000
vt 0.000000 0.000000
vt 0.000000 0.000000
vt 0.000000 0.000000
vt 0.000000 0.000000
vt 0.000000 0.000000
vt 0.000000 0.000000
vt 0.000000 0.000000
vt 0.000000 0.000000
vt 0.000000 0.000000
vt 0.000000 0.000000
vt 0.000000 0.000000
vt 0.000000 0.000000
vt 0.000000 0.000000
vt 0.000000 0.000000
vt 0.000000 0.000000
vt 0.000000 0.000000
vt 0.000000 0.000000
vt 0.000000 0.000000
vt 0.000000 0.000000
vt 0.000000 0.000000
vt 0.000000 0.000000
vt 0.000000 0.000000
vt 0.000000 0.000000
vt 0.000000 0.000000
vt 0.000000 0.000000
vt 0.000000 0.000000
vt 0.000000 0.000000
vt 0.000000 0.000000
vt 0.000000 0.000000
vt 0.000000 0.000000
vt 0.000000 0.000000
vt 0.000000 0.000000
vt 0.000000 0.000000
vt 0.000000 0.000000
vt 0.000000 0.000000
vt 0.000000 0.000000
vt 0.000000 0.000000
vt 0.000000 0.000000
vt 0.000000 0.000000
vt 0.000000 0.000000
vt 0.000000 0.000000
vt 0.000000 0.000000
vt 0.000000 0.000000
vt 0.000000 0.000000
vt 0.000000 0.000000
vt 0.000000 0.000000
vt 0.000000 0.000000
vt 0.000000 0.000000
vt 0.000000 0.000000
vt 0.000000 0.000000
vt 0.000000 0.000000
vt 0.000000 0.000000
vt 0.000000 0.000000
vt 0.000000 0.000000
vt 0.000000 0.000000
vt 0.000000 0.000000
vt 0.000000 0.000000
vt 0.000000 0.000000
vt 0.000000 0.000000
vt 0.000000 0.000000
vt 0.000000 0.000000
vt 0.000000 0.000000
vt 0.000000 0.000000
vt 0.000000 0.000000
vt 0.000000 0.000000
vt 0.000000 0.000000
vt 0.000000 0.000000
vt 0.000000 0.000000
vt 0.000000 0.000000
vt 0.000000 0.000000
vt 0.000000 0.000000
vt 0.000000 0.000000
vt 0.000000 0.000000
vt 0.000000 0.000000
vt 0.000000 0.000000
vt 0.000000 0.000000
vt 0.000000 0.000000
vt 0.000000 0.000000
vt 0.000000 0.000000
vt 0.000000 0.000000
vt 0.000000 0.000000
vt 0.000000 0.000000
vt 0.000000 0.000000
vt 0.000000 0.000000
vt 0.000000 0.000000
vt 0.000000 0.000000
vt 0.000000 0.000000
vt 0.000000 0.000000
vt 0.000000 0.000000
vn 0.0000 0.0000 1.0000
vn 0.0000 0.0000 0.0000
vn 0.9443 0.0101 -0.3288
vn -0.2250 -0.0024 0.9743
vn -0.9994 0.0258 0.0243
vn 0.1678 0.0018 -0.9858
vn 0.9443 0.0101 0.3288
vn 0.1955 0.0021 -0.9807
vn 0.1678 0.0018 0.9858
vn 0.5032 0.0054 -0.8642
vn 0.1955 0.0021 0.9807
vn 0.9999 0.0107 0.0000
vn 0.5032 0.0054 0.8642
vn -0.8798 -0.0319 -0.4743
vn -0.3705 -0.0040 -0.9288
vn -0.2250 -0.0024 -0.9743
vn -0.9995 0.0232 -0.0234
vn -0.8784 -0.0328 0.4768
vn -0.3705 -0.0040 0.9288
vn -0.0267 0.9996 -0.0000
vn -0.4520 0.8211 0.3487
vn -0.2330 0.8050 0.5456
vn -0.1341 0.8032 0.5804
vn 0.1163 0.8037 0.5836
vn 0.0998 0.8040 0.5862
vn 0.3049 0.7955 0.5237
vn 0.6062 0.7668 0.2111
vn 0.6478 0.7618 0.0000
vn 0.6039 0.7688 -0.2103
vn 0.3020 0.7999 -0.5186
vn 0.0987 0.8088 -0.5797
vn 0.1151 0.8084 -0.5773
vn -0.1326 0.8079 -0.5741
vn -0.2343 0.8110 -0.5361
vn -0.4373 0.8405 -0.3199
vn -0.5689 0.8221 0.0211
vn -0.5776 0.8161 -0.0182
vn 0.0000 -1.0000 -0.0000
vn -0.4505 -0.8672 0.2120
vn -0.1840 -0.8835 0.4308
vn -0.1052 -0.8841 0.4554
vn 0.0900 -0.8878 0.4513
vn 0.0772 -0.8879 0.4536
vn 0.2349 -0.8844 0.4034
vn 0.4719 -0.8662 0.1643
vn 0.5091 -0.8607 0.0000
vn 0.4789 -0.8619 -0.1667
vn 0.2437 -0.8749 -0.4185
vn 0.0805 -0.8774 -0.4729
vn 0.0938 -0.8775 -0.4704
vn -0.1096 -0.8733 -0.4747
vn -0.1943 -0.8745 -0.4445
vn -0.4566 -0.8687 -0.1920
vn -0.5183 -0.8552 0.0060
vn -0.5186 -0.8550 -0.0060
usemtl None
s off
f 2/1/1 5/2/1 22/3/1 19/4/1
f 11/5/1 29/6/1 31/7/1 13/8/1
f 6/9/2 12/10/2 30/11/2 23/12/2
f 10/13/1 14/14/1 32/15/1 27/16/1
f 1/17/1 7/18/1 24/19/1 18/20/1
f 8/21/1 1/17/1 18/20/1 25/22/1
f 12/10/2 15/23/2 33/24/2 30/11/2
f 4/25/1 8/21/1 25/22/1 21/26/1
f 9/27/1 16/28/1 34/29/1 26/30/1
f 17/31/1 35/32/1 26/30/1 9/27/1
f 6/9/1 2/1/1 19/4/1 23/12/1
f 13/8/1 31/7/1 35/32/1 17/31/1
f 5/2/1 3/33/1 20/34/1 22/3/1
f 15/23/1 10/13/1 27/16/1 33/24/1
f 3/33/1 4/25/1 21/26/1 20/34/1
f 14/14/1 11/5/1 29/6/1 32/15/1
f 23/12/3 19/4/3 37/35/3 41/36/3
f 31/7/4 49/37/4 53/38/4 35/32/4
f 34/29/5 52/39/5 91/40/5 46/41/5 28/42/5
f 22/3/6 20/34/6 38/43/6 40/44/6
f 33/24/7 51/45/7 45/46/7 27/16/7
f 20/34/8 21/26/8 39/47/8 38/43/8
f 32/15/9 50/48/9 47/49/9 29/6/9
f 19/4/10 22/3/10 40/44/10 37/35/10
f 29/6/11 47/49/11 49/37/11 31/7/11
f 23/12/12 41/36/12 48/50/12 30/11/12
f 27/16/13 45/46/13 50/48/13 32/15/13
f 18/20/14 24/19/14 42/51/14 36/52/14
f 25/22/15 18/20/15 36/52/15 43/53/15
f 30/11/12 48/50/12 51/45/12 33/24/12
f 21/26/16 25/22/16 43/53/16 39/47/16
f 24/19/17 28/42/17 46/41/17 90/54/17 42/51/17
f 26/30/18 44/55/18 52/39/18 34/29/18
f 35/32/19 53/38/19 44/55/19 26/30/19
f 54/56/20 60/57/20 64/58/20 70/59/20 62/60/20 71/61/20 67/62/20 65/63/20 68/64/20 63/65/20 69/66/20 66/67/20 59/68/20 55/69/20 58/70/20 56/71/20 57/72/20 61/73/20
f 52/39/21 44/55/21 62/60/21 70/59/21
f 44/55/22 53/38/22 71/61/22 62/60/22
f 53/38/23 49/37/23 67/62/23 71/61/23
f 49/37/24 47/49/24 65/63/24 67/62/24
f 47/49/25 50/48/25 68/64/25 65/63/25
f 50/48/26 45/46/26 63/65/26 68/64/26
f 45/46/27 51/45/27 69/66/27 63/65/27
f 51/45/28 48/50/28 66/67/28 69/66/28
f 48/50/28 41/36/28 59/68/28 66/67/28
f 37/35/29 55/69/29 59/68/29 41/36/29
f 40/44/30 58/70/30 55/69/30 37/35/30
f 38/43/31 56/71/31 58/70/31 40/44/31
f 39/47/32 57/72/32 56/71/32 38/43/32
f 43/53/33 61/73/33 57/72/33 39/47/33
f 36/52/34 54/56/34 61/73/34 43/53/34
f 42/51/35 60/57/35 54/56/35 36/52/35
f 46/41/36 64/58/36 60/57/36 42/51/36 90/54/36
f 46/41/37 91/40/37 52/39/37 70/59/37 64/58/37
f 72/74/38 79/75/38 75/76/38 74/77/38 76/78/38 73/79/38 77/80/38 84/81/38 87/82/38 81/83/38 86/84/38 83/85/38 85/86/38 89/87/38 80/88/38 88/89/38 82/90/38 78/91/38
f 34/29/39 88/89/39 80/88/39 26/30/39
f 26/30/40 80/88/40 89/87/40 35/32/40
f 35/32/41 89/87/41 85/86/41 31/7/41
f 31/7/42 85/86/42 83/85/42 29/6/42
f 29/6/43 83/85/43 86/84/43 32/15/43
f 32/15/44 86/84/44 81/83/44 27/16/44
f 27/16/45 81/83/45 87/82/45 33/24/45
f 33/24/46 87/82/46 84/81/46 30/11/46
f 30/11/46 84/81/46 77/80/46 23/12/46
f 19/4/47 23/12/47 77/80/47 73/79/47
f 22/3/48 19/4/48 73/79/48 76/78/48
f 20/34/49 22/3/49 76/78/49 74/77/49
f 21/26/50 20/34/50 74/77/50 75/76/50
f 25/22/51 21/26/51 75/76/51 79/75/51
f 18/20/52 25/22/52 79/75/52 72/74/52
f 24/19/53 18/20/53 72/74/53 78/91/53
f 28/42/54 24/19/54 78/91/54 82/90/54
f 28/42/55 82/90/55 88/89/55 34/29/55
